<svg xmlns="http://www.w3.org/2000/svg" viewBox="0 0 512 512"><path d="M409.911 447.723l.014.014c-42.135 33.868-95.659 54.132-153.924 54.132-93.632 0-175.039-52.335-216.567-129.351l79.677-65.223c20.764 55.415 74.22 94.862 136.889 94.862 26.937 0 52.173-7.281 73.828-19.994l80.083 65.56z" fill="#28b446"/><path d="M497.572 210.069A246.202 246.202 0 0 1 501.868 256c0 17.603-1.851 34.773-5.377 51.335-11.969 56.361-43.243 105.575-86.567 140.401l-.014-.014-80.083-65.56c28.748-16.86 51.214-43.243 63.048-74.828H261.404v-97.266h133.39l102.778.001z" fill="#518ef8"/><path d="M412.937 66.736l-79.65 65.209c-22.412-14.009-48.903-22.101-77.286-22.101-64.088 0-118.544 41.257-138.267 98.658l-80.096-65.574h-.014C78.543 64.034 160.976 10.132 256 10.132c59.657 0 114.356 21.25 156.937 56.604z" fill="#f14336"/><path d="M119.111 307.295l-79.677 65.223C20.737 337.839 10.132 298.162 10.132 256c0-40.771 9.916-79.218 27.491-113.072h.014l80.096 65.574c-5.106 14.887-7.889 30.869-7.889 47.498 0 18.048 3.269 35.34 9.267 51.295z" fill="#fbbb00"/><path d="M507.526 208.179a10.132 10.132 0 0 0-9.954-8.242H261.404c-5.596 0-10.132 4.536-10.132 10.132v97.267c0 5.596 4.536 10.132 10.132 10.132H377.37c-11.752 23.149-30.063 42.7-52.671 55.958-20.727 12.168-44.483 18.6-68.699 18.6-56.416 0-107.616-35.479-127.406-88.295-5.72-15.213-8.619-31.271-8.619-47.729 0-15.134 2.469-30.009 7.34-44.206 18.871-54.919 70.586-91.818 128.685-91.818 25.528 0 50.398 7.11 71.916 20.561a10.133 10.133 0 0 0 11.788-.752l79.65-65.209a10.13 10.13 0 0 0 .054-15.634C373.63 20.933 315.597 0 256 0 159.986 0 72.863 52.979 28.631 138.259 9.901 174.338 0 215.052 0 256c0 42.345 10.552 84.298 30.515 121.326C75.307 460.396 161.708 512 256 512c58.132 0 115.05-20.018 160.272-56.366 45.944-36.933 77.952-88.852 90.128-146.189 3.715-17.451 5.6-35.433 5.6-53.445 0-16.095-1.505-32.184-4.474-47.821zM256 20.264c50.746 0 100.256 16.477 140.751 46.628l-64.4 52.724c-23.239-13.043-49.48-19.905-76.352-19.905-61.933 0-117.53 36.511-142.556 92.184l-62.927-51.517C92.333 66.078 170.323 20.264 256 20.264zM20.264 256c0-34.014 7.029-66.617 20.879-97.108l64.865 53.103a156.32 156.32 0 0 0-6.295 44.004c0 16.43 2.524 32.525 7.502 47.94l-64.412 52.727C28.04 325.39 20.264 290.847 20.264 256zm32.171 118.968l62.676-51.305c11.504 23.986 28.887 44.597 50.889 60.122 26.428 18.647 57.549 28.503 90.001 28.503 25.426 0 50.411-6.197 72.717-17.94l64.858 53.097c-40.189 29.014-87.486 44.293-137.577 44.293-84.049-.002-161.29-44.534-203.564-116.77zm434.146-69.738c-10.645 50.13-37.776 95.756-76.72 129.358l-62.911-51.503c25.119-18.016 44.553-43.208 55.414-72.196a10.133 10.133 0 0 0-9.489-13.686H271.536V220.2h217.493a237.635 237.635 0 0 1 2.707 35.799c0 16.597-1.734 33.159-5.155 49.231z" fill="#333"/></svg>